HIERARCHY
ROOT Hips
{
	OFFSET 0.000000 100.481300 0.000000
	CHANNELS 6 Xposition Yposition Zposition Xrotation Yrotation Zrotation 
	JOINT Spine
	{
		OFFSET -0.279200 12.230698 -2.892100
		CHANNELS 3 Xrotation Yrotation Zrotation
		JOINT Spine1
		{
			OFFSET -0.232667 10.192268 -1.242267
			CHANNELS 3 Xrotation Yrotation Zrotation
			JOINT Spine1_split
			{
				OFFSET -0.232667 10.192268 -1.242267
				CHANNELS 3 Xrotation Yrotation Zrotation
				JOINT Spine2
				{
					OFFSET -0.232667 10.192268 -1.242267
					CHANNELS 3 Xrotation Yrotation Zrotation
					JOINT Neck
					{
						OFFSET -0.418800 17.814194 8.416900
						CHANNELS 3 Xrotation Yrotation Zrotation
						JOINT Head
						{
							OFFSET 0.000000 7.031097 3.806800
							CHANNELS 3 Xrotation Yrotation Zrotation
							JOINT HeadTop_End
							{
								OFFSET 0.000000 24.646606 12.978600
								CHANNELS 3 Xrotation Yrotation Zrotation
								End Site
								{
									OFFSET 0.000000 0.000000 0.000000
								}
							}
						}
					}
					JOINT LeftShoulder
					{
						OFFSET 8.476499 7.247704 -3.868750
						CHANNELS 3 Xrotation Yrotation Zrotation
						JOINT LeftShoulder_split
						{
							OFFSET 8.476499 7.247704 -3.868750
							CHANNELS 3 Xrotation Yrotation Zrotation
							JOINT LeftArm
							{
								OFFSET 9.308998 -2.777710 0.208600
								CHANNELS 3 Xrotation Yrotation Zrotation
								JOINT LeftForeArm
								{
									OFFSET 29.972298 0.000000 0.000000
									CHANNELS 3 Xrotation Yrotation Zrotation
									JOINT LeftHand
									{
										OFFSET 26.026505 0.000000 0.000000
										CHANNELS 3 Xrotation Yrotation Zrotation
										JOINT LeftHandThumb1
										{
											OFFSET 12.240501 -7.147949 9.207150
											CHANNELS 3 Xrotation Yrotation Zrotation
											JOINT LeftHandThumb2
											{
												OFFSET 4.138618 -2.389435 2.389433
												CHANNELS 3 Xrotation Yrotation Zrotation
												JOINT LeftHandThumb3
												{
													OFFSET 2.726913 -1.574387 1.574386
													CHANNELS 3 Xrotation Yrotation Zrotation
													JOINT LeftHandThumb4
													{
														OFFSET 3.941010 -2.275345 2.275342
														CHANNELS 3 Xrotation Yrotation Zrotation
														End Site
														{
															OFFSET 0.000000 0.000000 0.000000
														}
													}
												}
											}
										}
										JOINT LeftHandIndex1
										{
											OFFSET 24.424698 -1.985611 5.953459
											CHANNELS 3 Xrotation Yrotation Zrotation
											JOINT LeftHandIndex2
											{
												OFFSET 6.426697 0.000000 0.000000
												CHANNELS 3 Xrotation Yrotation Zrotation
												JOINT LeftHandIndex3
												{
													OFFSET 5.337898 0.000000 0.000000
													CHANNELS 3 Xrotation Yrotation Zrotation
													JOINT LeftHandIndex4
													{
														OFFSET 4.409401 0.000000 0.000000
														CHANNELS 3 Xrotation Yrotation Zrotation
														End Site
														{
															OFFSET 0.000000 0.000000 0.000000
														}
													}
												}
											}
										}
										JOINT LeftHandMiddle1
										{
											OFFSET 23.810104 0.000000 0.000000
											CHANNELS 3 Xrotation Yrotation Zrotation
											JOINT LeftHandMiddle2
											{
												OFFSET 7.176498 0.000000 0.000000
												CHANNELS 3 Xrotation Yrotation Zrotation
												JOINT LeftHandMiddle3
												{
													OFFSET 6.774902 0.000000 0.000000
													CHANNELS 3 Xrotation Yrotation Zrotation
													JOINT LeftHandMiddle4
													{
														OFFSET 5.403328 0.000000 0.000000
														CHANNELS 3 Xrotation Yrotation Zrotation
														End Site
														{
															OFFSET 0.000000 0.000000 0.000000
														}
													}
												}
											}
										}
										JOINT LeftHandRing1
										{
											OFFSET 22.908401 -0.839279 -6.020567
											CHANNELS 3 Xrotation Yrotation Zrotation
											JOINT LeftHandRing2
											{
												OFFSET 6.337502 0.000000 0.000000
												CHANNELS 3 Xrotation Yrotation Zrotation
												JOINT LeftHandRing3
												{
													OFFSET 5.779297 0.000000 0.000000
													CHANNELS 3 Xrotation Yrotation Zrotation
													JOINT LeftHandRing4
													{
														OFFSET 4.965698 0.000000 0.000000
														CHANNELS 3 Xrotation Yrotation Zrotation
														End Site
														{
															OFFSET 0.000000 0.000000 0.000000
														}
													}
												}
											}
										}
										JOINT LeftHandPinky1
										{
											OFFSET 20.037003 -1.530319 -10.950146
											CHANNELS 3 Xrotation Yrotation Zrotation
											JOINT LeftHandPinky2
											{
												OFFSET 5.254700 0.000000 0.000000
												CHANNELS 3 Xrotation Yrotation Zrotation
												JOINT LeftHandPinky3
												{
													OFFSET 4.810204 0.000000 0.000000
													CHANNELS 3 Xrotation Yrotation Zrotation
													JOINT LeftHandPinky4
													{
														OFFSET 3.647202 0.000000 0.000000
														CHANNELS 3 Xrotation Yrotation Zrotation
														End Site
														{
															OFFSET 0.000000 0.000000 0.000000
														}
													}
												}
											}
										}
									}
								}
							}
						}
					}
					JOINT RightShoulder
					{
						OFFSET -7.570500 7.247704 -3.868750
						CHANNELS 3 Xrotation Yrotation Zrotation
						JOINT RightShoulder_split
						{
							OFFSET -7.570500 7.247704 -3.868750
							CHANNELS 3 Xrotation Yrotation Zrotation
							JOINT RightArm
							{
								OFFSET -9.308998 -2.777710 0.208500
								CHANNELS 3 Xrotation Yrotation Zrotation
								JOINT RightForeArm
								{
									OFFSET -29.972300 0.000000 0.000000
									CHANNELS 3 Xrotation Yrotation Zrotation
									JOINT RightHand
									{
										OFFSET -26.026505 0.000000 0.000000
										CHANNELS 3 Xrotation Yrotation Zrotation
										JOINT RightHandThumb1
										{
											OFFSET -12.240601 -7.148026 9.207092
											CHANNELS 3 Xrotation Yrotation Zrotation
											JOINT RightHandThumb2
											{
												OFFSET -4.138618 -2.389435 2.389433
												CHANNELS 3 Xrotation Yrotation Zrotation
												JOINT RightHandThumb3
												{
													OFFSET -2.726974 -1.574417 1.574421
													CHANNELS 3 Xrotation Yrotation Zrotation
													JOINT RightHandThumb4
													{
														OFFSET -3.941010 -2.275345 2.275343
														CHANNELS 3 Xrotation Yrotation Zrotation
														End Site
														{
															OFFSET 0.000000 0.000000 0.000000
														}
													}
												}
											}
										}
										JOINT RightHandIndex1
										{
											OFFSET -24.424698 -1.985657 5.953444
											CHANNELS 3 Xrotation Yrotation Zrotation
											JOINT RightHandIndex2
											{
												OFFSET -6.426697 0.000000 0.000000
												CHANNELS 3 Xrotation Yrotation Zrotation
												JOINT RightHandIndex3
												{
													OFFSET -5.337898 0.000000 0.000000
													CHANNELS 3 Xrotation Yrotation Zrotation
													JOINT RightHandIndex4
													{
														OFFSET -4.409401 0.000000 0.000000
														CHANNELS 3 Xrotation Yrotation Zrotation
														End Site
														{
															OFFSET 0.000000 0.000000 0.000000
														}
													}
												}
											}
										}
										JOINT RightHandMiddle1
										{
											OFFSET -23.810097 0.000000 0.000000
											CHANNELS 3 Xrotation Yrotation Zrotation
											JOINT RightHandMiddle2
											{
												OFFSET -7.176498 0.000000 0.000000
												CHANNELS 3 Xrotation Yrotation Zrotation
												JOINT RightHandMiddle3
												{
													OFFSET -6.774902 0.000000 0.000000
													CHANNELS 3 Xrotation Yrotation Zrotation
													JOINT RightHandMiddle4
													{
														OFFSET -5.403328 0.000000 0.000000
														CHANNELS 3 Xrotation Yrotation Zrotation
														End Site
														{
															OFFSET 0.000000 0.000000 0.000000
														}
													}
												}
											}
										}
										JOINT RightHandRing1
										{
											OFFSET -22.908302 -0.839325 -6.020576
											CHANNELS 3 Xrotation Yrotation Zrotation
											JOINT RightHandRing2
											{
												OFFSET -6.337502 0.000000 0.000000
												CHANNELS 3 Xrotation Yrotation Zrotation
												JOINT RightHandRing3
												{
													OFFSET -5.779297 0.000000 0.000000
													CHANNELS 3 Xrotation Yrotation Zrotation
													JOINT RightHandRing4
													{
														OFFSET -4.965698 0.000000 0.000000
														CHANNELS 3 Xrotation Yrotation Zrotation
														End Site
														{
															OFFSET 0.000000 0.000000 0.000000
														}
													}
												}
											}
										}
										JOINT RightHandPinky1
										{
											OFFSET -20.037003 -1.530334 -10.950259
											CHANNELS 3 Xrotation Yrotation Zrotation
											JOINT RightHandPinky2
											{
												OFFSET -5.254700 0.000000 0.000000
												CHANNELS 3 Xrotation Yrotation Zrotation
												JOINT RightHandPinky3
												{
													OFFSET -4.810204 0.000000 0.000000
													CHANNELS 3 Xrotation Yrotation Zrotation
													JOINT RightHandPinky4
													{
														OFFSET -3.647202 0.000000 0.000000
														CHANNELS 3 Xrotation Yrotation Zrotation
														End Site
														{
															OFFSET 0.000000 0.000000 0.000000
														}
													}
												}
											}
										}
									}
								}
							}
						}
					}
				}
			}
		}
	}
	JOINT LeftUpLeg
	{
		OFFSET 15.427100 -6.655098 0.678600
		CHANNELS 3 Xrotation Yrotation Zrotation
		JOINT LeftLeg
		{
			OFFSET 4.081073 -39.591068 13.024000
			CHANNELS 3 Xrotation Yrotation Zrotation
			JOINT LeftFoot
			{
				OFFSET -4.081074 -37.707932 -15.979700
				CHANNELS 3 Xrotation Yrotation Zrotation
				JOINT LeftToeBase
				{
					OFFSET 5.346399 -15.068900 20.645000
					CHANNELS 3 Xrotation Yrotation Zrotation
					JOINT LeftToe_End
					{
						OFFSET 2.754700 0.931300 11.300900
						CHANNELS 3 Xrotation Yrotation Zrotation
						End Site
						{
							OFFSET 0.000000 0.000000 0.000000
						}
					}
				}
			}
		}
	}
	JOINT RightUpLeg
	{
		OFFSET -15.569500 -6.655098 0.678600
		CHANNELS 3 Xrotation Yrotation Zrotation
		JOINT RightLeg
		{
			OFFSET -4.081825 -39.591045 13.023800
			CHANNELS 3 Xrotation Yrotation Zrotation
			JOINT RightFoot
			{
				OFFSET 4.081824 -37.707954 -15.979600
				CHANNELS 3 Xrotation Yrotation Zrotation
				JOINT RightToeBase
				{
					OFFSET -5.346400 -15.068900 20.645000
					CHANNELS 3 Xrotation Yrotation Zrotation
					JOINT RightToe_End
					{
						OFFSET -2.754700 0.931300 11.300900
						CHANNELS 3 Xrotation Yrotation Zrotation
						End Site
						{
							OFFSET 0.000000 0.000000 0.000000
						}
					}
				}
			}
		}
	}
}
MOTION
Frames: 4
Frame Time: 0.016667
-0.391000 68.324623 -0.619977 7.505424 3.310562 -0.191723 1.423985 -3.078135 -1.330585 4.463941 -2.897044 3.069452 0.000000 0.000000 0.000000 4.470556 -2.960904 2.997961 -6.646408 2.329847 -0.789044 -22.799696 6.183980 9.466394 -0.000000 -0.000000 -0.000000 -0.863856 7.389834 -0.025977 0.000000 0.000000 0.000000 -11.563464 10.383920 -66.345521 0.000029 -115.180116 0.000036 -72.996199 -11.310949 -18.454638 2.694222 20.233104 14.029378 2.246562 5.062585 -0.344645 -7.335901 -0.421716 13.147324 0.000000 -0.000000 -0.000000 5.768241 6.881148 -88.058767 5.425122 5.835601 -85.818117 5.524549 5.841974 -86.795578 -0.000002 -0.000002 -0.000001 -0.017699 7.177028 -79.088297 3.595305 5.400155 -67.288210 4.336589 5.652334 -74.974208 -0.000001 0.000005 0.000001 0.351611 7.858094 -86.242381 3.058244 5.143559 -61.447845 7.457081 5.627054 -105.957899 0.000002 -0.000000 0.000001 -3.192688 8.750411 -83.420918 6.384923 5.826763 -95.244099 6.457078 5.819705 -95.955244 -0.000001 0.000003 -0.000002 0.518554 -7.917610 14.973079 0.000000 0.000000 0.000000 -19.108962 0.823922 54.260006 0.000092 114.793897 -0.000090 -65.260941 9.926077 32.064719 2.274831 -18.433738 -12.204885 2.753456 -6.766194 -0.612033 -5.504813 -5.510951 -14.718503 -0.000002 0.000001 -0.000000 5.674706 -1.758884 87.252750 4.318612 -4.644870 85.826668 4.397484 -4.649949 86.799991 -0.000001 -0.000002 -0.000001 2.028895 -6.487554 78.554736 2.866356 -4.299783 67.363246 3.450425 -4.498460 74.966736 -0.000003 0.000005 0.000002 -1.327495 -6.487831 85.540190 2.437365 -4.095138 61.507192 5.933588 -4.479211 105.923680 -0.000002 0.000002 0.000001 -13.485163 -6.858187 82.489581 5.081635 -4.637832 95.235049 5.138730 -4.632254 95.941823 -0.000001 0.000002 -0.000002 31.685275 18.879657 4.391830 22.218920 -9.751227 5.797701 -53.630516 -0.644138 0.335492 -14.032927 -0.000001 -0.000000 0.000000 -0.000000 -0.000001 -64.460341 0.200512 -4.266225 69.011876 -2.210866 0.997535 -11.978568 3.580221 -3.520363 1.552309 -0.009833 1.128318 -0.000000 0.000000 0.000000 
-0.324155 71.105095 -0.155119 7.405864 4.919766 0.586865 1.561575 -3.045499 -1.316142 3.785096 -3.090958 2.685692 0.000000 0.000000 0.000000 3.791149 -3.134330 2.617751 -6.142038 2.189227 -1.060332 -20.578870 4.977733 9.024679 -0.000001 -0.000000 0.000001 -0.699218 6.301895 -0.123048 0.000000 0.000000 0.000000 -14.747400 8.597208 -65.355089 0.000039 -113.772346 0.000037 -71.122814 -11.217037 -18.021003 2.956461 20.391926 13.868023 2.256793 5.074891 -0.335807 -7.322872 -0.404660 13.162745 0.000000 0.000000 -0.000000 5.832246 6.953400 -87.643669 5.383904 5.832436 -85.412677 5.485068 5.839651 -86.407610 -0.000001 -0.000002 0.000001 0.075930 7.167630 -78.770550 3.574146 5.391299 -67.063032 4.317590 5.647195 -74.780920 0.000001 -0.000001 0.000000 0.430403 7.837990 -85.961728 3.052598 5.140472 -61.384700 7.436231 5.632941 -105.745173 0.000002 -0.000001 0.000001 -3.123937 8.721479 -83.173481 6.386842 5.826581 -95.262950 6.458416 5.819562 -95.968563 -0.000002 0.000000 -0.000000 0.413483 -7.788719 13.845019 0.000000 0.000000 0.000000 -20.755796 2.647584 54.652493 0.000022 114.710322 -0.000022 -65.124945 9.634441 30.561644 2.414912 -18.861656 -12.282930 2.756549 -6.763772 -0.616804 -5.465471 -5.594278 -14.760054 -0.000001 0.000000 0.000000 5.724095 -2.009589 86.044681 4.254361 -4.639742 85.032659 4.335743 -4.646104 86.038131 0.000002 0.000001 -0.000001 2.223331 -6.492715 77.328192 2.805707 -4.274072 66.551847 3.389828 -4.481791 74.192684 0.000003 0.000001 0.000000 -1.004137 -6.353181 83.832704 2.365594 -4.055456 60.497403 5.838686 -4.505121 104.712046 0.000000 -0.000001 0.000002 -13.015763 -6.850521 80.337703 4.970065 -4.646675 93.856635 5.024592 -4.642674 94.530248 0.000001 0.000001 -0.000001 29.335881 16.946978 3.914290 23.732257 -8.851637 7.091009 -47.599179 0.392858 0.361647 -21.776849 -0.000003 -0.000001 0.000001 -0.000000 -0.000000 -60.736897 0.324134 -5.721772 65.667133 -2.707745 0.919157 -12.233142 3.451695 -3.721598 1.563124 -0.010022 1.138456 -0.000000 0.000000 -0.000000 
-0.166334 74.282433 0.109925 7.047695 6.542862 1.153370 2.196734 -2.915543 -0.793338 3.099216 -3.162404 2.168580 0.000000 0.000000 0.000000 3.091625 -3.180354 2.120446 -5.647365 2.000596 -1.393996 -18.366985 3.484120 8.410582 0.000000 0.000000 -0.000000 -0.472603 4.837149 -0.286772 0.000000 0.000000 0.000000 -18.246980 6.118551 -64.201114 0.000005 -111.959259 -0.000009 -70.528335 -11.069046 -17.673012 3.052323 20.083154 13.631500 2.282472 5.105831 -0.313568 -7.290172 -0.361698 13.201586 -0.000004 0.000000 -0.000000 5.739238 6.804737 -86.402392 5.292546 5.824429 -84.512956 5.394030 5.833242 -85.512336 0.000000 -0.000001 0.000001 0.063389 7.084366 -77.817814 3.517053 5.366878 -66.453772 4.265178 5.632769 -74.247708 0.000002 -0.000000 0.000001 0.429288 7.766184 -85.148540 3.012645 5.118570 -60.938026 7.349870 5.656476 -104.867241 0.000000 0.000001 0.000002 -3.111983 8.578949 -82.473441 6.327466 5.831717 -94.678211 6.398814 5.825446 -95.380928 -0.000001 0.000002 0.000001 0.323428 -7.582996 12.788912 0.000000 0.000000 0.000000 -22.735700 4.589339 55.000515 0.000017 114.546828 -0.000011 -66.009243 9.599521 29.265882 2.396705 -19.071078 -12.360059 2.764306 -6.757695 -0.628893 -5.366936 -5.803890 -14.864080 -0.000000 0.000001 -0.000001 5.394700 -1.676048 84.200236 4.152343 -4.629787 83.770139 4.238159 -4.638323 84.832370 0.000003 -0.000000 0.000001 2.177232 -6.430869 75.372599 2.732569 -4.241697 65.566483 3.316530 -4.460425 73.252283 0.000002 0.000002 0.000003 -0.872491 -6.186911 81.800183 2.288835 -4.011169 59.406185 5.709562 -4.536970 103.074050 -0.000001 -0.000001 -0.000000 -12.578779 -6.518122 78.150369 4.833918 -4.653807 92.177433 4.885496 -4.651579 92.813596 -0.000002 0.000003 -0.000004 25.631098 14.882972 3.790116 27.164677 -7.014840 8.487022 -39.448495 2.663178 -0.775213 -32.297291 -0.000002 -0.000001 -0.000000 -0.000000 -0.000001 -56.438198 0.147260 -6.951589 61.313625 -3.265677 0.777377 -11.799490 3.250051 -3.971924 1.524489 -0.009604 1.113868 -0.000000 -0.000000 -0.000000 
0.018620 77.810455 0.357075 6.501994 8.082320 1.643008 3.101077 -2.672811 -0.185092 2.446619 -3.124232 1.713960 0.000000 0.000000 0.000000 2.423726 -3.115747 1.695901 -5.047373 1.811920 -1.815773 -16.188803 1.802792 7.789924 0.000000 0.000000 0.000001 -0.203420 3.122969 -0.566955 0.000000 0.000000 0.000000 -21.904186 3.029747 -63.035030 0.000073 -109.690331 0.000094 -71.153421 -10.857865 -17.502951 3.052084 19.424590 13.311484 2.318678 5.149483 -0.282189 -7.244050 -0.301050 13.256362 0.000006 -0.000000 -0.000001 5.508297 6.540123 -84.404992 5.160485 5.810321 -83.210016 5.260990 5.821309 -84.202012 0.000000 0.000002 0.000000 -0.028279 6.934536 -76.285802 3.430219 5.328357 -65.522292 4.186300 5.610031 -73.442463 0.000004 0.000003 0.000003 0.374623 7.647753 -83.847033 2.941949 5.078795 -60.142568 7.203621 5.693099 -103.388348 -0.000003 -0.000000 -0.000000 -3.122399 8.407760 -81.338899 6.209395 5.840117 -93.517106 6.280231 5.835358 -94.213765 -0.000001 0.000000 -0.000001 0.250417 -6.988277 11.672798 0.000000 0.000000 0.000000 -25.083293 6.274636 55.058756 0.000046 114.221937 -0.000058 -67.297055 9.612998 28.187380 2.225142 -18.937406 -12.390637 2.775319 -6.749209 -0.645846 -5.228504 -6.100023 -15.010317 -0.000000 0.000001 0.000001 4.860536 -0.985237 81.914807 4.024126 -4.614037 82.179156 4.115779 -4.625664 83.317072 -0.000002 0.000003 0.000002 1.826109 -6.267488 72.978707 2.650900 -4.203742 64.457759 3.234628 -4.435049 72.196302 0.000001 -0.000002 0.000001 -0.841717 -5.998533 79.557354 2.208675 -3.962810 58.253085 5.556927 -4.569618 101.151475 -0.000000 0.000003 0.000000 -12.144820 -6.101578 75.947920 4.684007 -4.657105 90.330597 4.732423 -4.656560 90.927037 0.000003 -0.000003 -0.000000 20.145650 12.676162 3.992859 32.365582 -4.533723 9.769634 -26.944275 6.426560 -4.241393 -46.013448 0.000002 0.000001 0.000001 -0.000000 0.000001 -51.657762 -0.251229 -7.759413 56.139032 -4.054203 0.403719 -10.865342 3.107343 -4.464606 1.114566 -0.005228 0.821230 -0.000000 -0.000000 -0.000000 
